<svg width="375" height="120" viewBox="0 0 375 120" fill="none" xmlns="http://www.w3.org/2000/svg">
<rect width="375" height="48" fill="white"/>
<rect x="16" width="347" height="48" rx="12" fill="#7126B5"/>
<path d="M138.759 18.88V20.368H135.799V30H133.975V20.368H130.999V18.88H138.759ZM148.686 25.376C148.686 25.7067 148.665 26.0053 148.622 26.272H141.886C141.94 26.976 142.201 27.5413 142.67 27.968C143.14 28.3947 143.716 28.608 144.398 28.608C145.38 28.608 146.073 28.1973 146.478 27.376H148.446C148.18 28.1867 147.694 28.8533 146.99 29.376C146.297 29.888 145.433 30.144 144.398 30.144C143.556 30.144 142.798 29.9573 142.126 29.584C141.465 29.2 140.942 28.6667 140.558 27.984C140.185 27.2907 139.998 26.4907 139.998 25.584C139.998 24.6773 140.18 23.8827 140.542 23.2C140.916 22.5067 141.433 21.9733 142.094 21.6C142.766 21.2267 143.534 21.04 144.398 21.04C145.23 21.04 145.972 21.2213 146.622 21.584C147.273 21.9467 147.78 22.4587 148.142 23.12C148.505 23.7707 148.686 24.5227 148.686 25.376ZM146.782 24.8C146.772 24.128 146.532 23.5893 146.062 23.184C145.593 22.7787 145.012 22.576 144.318 22.576C143.689 22.576 143.15 22.7787 142.702 23.184C142.254 23.5787 141.988 24.1173 141.902 24.8H146.782ZM152.305 22.464C152.572 22.016 152.924 21.6693 153.361 21.424C153.809 21.168 154.337 21.04 154.945 21.04V22.928H154.481C153.767 22.928 153.223 23.1093 152.849 23.472C152.487 23.8347 152.305 24.464 152.305 25.36V30H150.481V21.184H152.305V22.464ZM158.446 22.496C158.755 22.0693 159.177 21.7227 159.71 21.456C160.254 21.1787 160.857 21.04 161.518 21.04C162.297 21.04 163.001 21.2267 163.63 21.6C164.259 21.9733 164.755 22.5067 165.118 23.2C165.481 23.8827 165.662 24.6667 165.662 25.552C165.662 26.4373 165.481 27.232 165.118 27.936C164.755 28.6293 164.254 29.1733 163.614 29.568C162.985 29.952 162.286 30.144 161.518 30.144C160.835 30.144 160.227 30.0107 159.694 29.744C159.171 29.4773 158.755 29.136 158.446 28.72V30H156.622V18.16H158.446V22.496ZM163.806 25.552C163.806 24.944 163.678 24.4213 163.422 23.984C163.177 23.536 162.846 23.2 162.43 22.976C162.025 22.7413 161.587 22.624 161.118 22.624C160.659 22.624 160.222 22.7413 159.806 22.976C159.401 23.2107 159.07 23.552 158.814 24C158.569 24.448 158.446 24.976 158.446 25.584C158.446 26.192 158.569 26.7253 158.814 27.184C159.07 27.632 159.401 27.9733 159.806 28.208C160.222 28.4427 160.659 28.56 161.118 28.56C161.587 28.56 162.025 28.4427 162.43 28.208C162.846 27.9627 163.177 27.6107 163.422 27.152C163.678 26.6933 163.806 26.16 163.806 25.552ZM168.394 20.016C168.063 20.016 167.786 19.904 167.562 19.68C167.338 19.456 167.226 19.1787 167.226 18.848C167.226 18.5173 167.338 18.24 167.562 18.016C167.786 17.792 168.063 17.68 168.394 17.68C168.714 17.68 168.986 17.792 169.21 18.016C169.434 18.24 169.546 18.5173 169.546 18.848C169.546 19.1787 169.434 19.456 169.21 19.68C168.986 19.904 168.714 20.016 168.394 20.016ZM169.29 21.184V30H167.466V21.184H169.29ZM173.812 22.672V27.552C173.812 27.8827 173.887 28.1227 174.036 28.272C174.196 28.4107 174.463 28.48 174.836 28.48H175.956V30H174.516C173.695 30 173.066 29.808 172.628 29.424C172.191 29.04 171.972 28.416 171.972 27.552V22.672H170.932V21.184H171.972V18.992H173.812V21.184H175.956V22.672H173.812ZM181.126 25.6L185.19 30H182.726L179.462 26.208V30H177.638V18.16H179.462V25.04L182.662 21.184H185.19L181.126 25.6ZM185.889 25.552C185.889 24.6667 186.07 23.8827 186.433 23.2C186.806 22.5173 187.308 21.9893 187.937 21.616C188.577 21.232 189.281 21.04 190.049 21.04C190.742 21.04 191.345 21.1787 191.857 21.456C192.38 21.7227 192.796 22.0587 193.105 22.464V21.184H194.945V30H193.105V28.688C192.796 29.104 192.374 29.4507 191.841 29.728C191.308 30.0053 190.7 30.144 190.017 30.144C189.26 30.144 188.566 29.952 187.937 29.568C187.308 29.1733 186.806 28.6293 186.433 27.936C186.07 27.232 185.889 26.4373 185.889 25.552ZM193.105 25.584C193.105 24.976 192.977 24.448 192.721 24C192.476 23.552 192.15 23.2107 191.745 22.976C191.34 22.7413 190.902 22.624 190.433 22.624C189.964 22.624 189.526 22.7413 189.121 22.976C188.716 23.2 188.385 23.536 188.129 23.984C187.884 24.4213 187.761 24.944 187.761 25.552C187.761 26.16 187.884 26.6933 188.129 27.152C188.385 27.6107 188.716 27.9627 189.121 28.208C189.537 28.4427 189.974 28.56 190.433 28.56C190.902 28.56 191.34 28.4427 191.745 28.208C192.15 27.9733 192.476 27.632 192.721 27.184C192.977 26.7253 193.105 26.192 193.105 25.584ZM201.789 21.04C202.482 21.04 203.101 21.184 203.645 21.472C204.199 21.76 204.631 22.1867 204.941 22.752C205.25 23.3173 205.405 24 205.405 24.8V30H203.597V25.072C203.597 24.2827 203.399 23.68 203.005 23.264C202.61 22.8373 202.071 22.624 201.389 22.624C200.706 22.624 200.162 22.8373 199.757 23.264C199.362 23.68 199.165 24.2827 199.165 25.072V30H197.341V21.184H199.165V22.192C199.463 21.8293 199.842 21.5467 200.301 21.344C200.77 21.1413 201.266 21.04 201.789 21.04ZM219.072 18.88V20.368H216.112V30H214.288V20.368H211.312V18.88H219.072ZM221.847 20.016C221.516 20.016 221.239 19.904 221.015 19.68C220.791 19.456 220.679 19.1787 220.679 18.848C220.679 18.5173 220.791 18.24 221.015 18.016C221.239 17.792 221.516 17.68 221.847 17.68C222.167 17.68 222.439 17.792 222.663 18.016C222.887 18.24 222.999 18.5173 222.999 18.848C222.999 19.1787 222.887 19.456 222.663 19.68C222.439 19.904 222.167 20.016 221.847 20.016ZM222.743 21.184V30H220.919V21.184H222.743ZM228.626 25.6L232.69 30H230.226L226.962 26.208V30H225.138V18.16H226.962V25.04L230.162 21.184H232.69L228.626 25.6ZM242.077 25.376C242.077 25.7067 242.056 26.0053 242.013 26.272H235.277C235.33 26.976 235.592 27.5413 236.061 27.968C236.53 28.3947 237.106 28.608 237.789 28.608C238.77 28.608 239.464 28.1973 239.869 27.376H241.837C241.57 28.1867 241.085 28.8533 240.381 29.376C239.688 29.888 238.824 30.144 237.789 30.144C236.946 30.144 236.189 29.9573 235.517 29.584C234.856 29.2 234.333 28.6667 233.949 27.984C233.576 27.2907 233.389 26.4907 233.389 25.584C233.389 24.6773 233.57 23.8827 233.933 23.2C234.306 22.5067 234.824 21.9733 235.485 21.6C236.157 21.2267 236.925 21.04 237.789 21.04C238.621 21.04 239.362 21.2213 240.013 21.584C240.664 21.9467 241.17 22.4587 241.533 23.12C241.896 23.7707 242.077 24.5227 242.077 25.376ZM240.173 24.8C240.162 24.128 239.922 23.5893 239.453 23.184C238.984 22.7787 238.402 22.576 237.709 22.576C237.08 22.576 236.541 22.7787 236.093 23.184C235.645 23.5787 235.378 24.1173 235.293 24.8H240.173ZM246 22.672V27.552C246 27.8827 246.075 28.1227 246.224 28.272C246.384 28.4107 246.651 28.48 247.024 28.48H248.144V30H246.704C245.883 30 245.253 29.808 244.816 29.424C244.379 29.04 244.16 28.416 244.16 27.552V22.672H243.12V21.184H244.16V18.992H246V21.184H248.144V22.672H246Z" fill="white"/>
<rect width="375" height="72" transform="translate(0 48)" fill="white"/>
<rect x="16" y="60" width="347" height="48" rx="12" fill="#D0B7E6"/>
<path d="M97.8889 84.416C97.8889 83.328 98.1395 82.352 98.6409 81.488C99.1529 80.624 99.8409 79.952 100.705 79.472C101.58 78.9813 102.534 78.736 103.569 78.736C104.753 78.736 105.804 79.0293 106.721 79.616C107.649 80.192 108.321 81.0133 108.737 82.08H106.545C106.257 81.4933 105.857 81.056 105.345 80.768C104.833 80.48 104.241 80.336 103.569 80.336C102.833 80.336 102.177 80.5013 101.601 80.832C101.025 81.1627 100.572 81.6373 100.241 82.256C99.9209 82.8747 99.7609 83.5947 99.7609 84.416C99.7609 85.2373 99.9209 85.9573 100.241 86.576C100.572 87.1947 101.025 87.6747 101.601 88.016C102.177 88.3467 102.833 88.512 103.569 88.512C104.241 88.512 104.833 88.368 105.345 88.08C105.857 87.792 106.257 87.3547 106.545 86.768H108.737C108.321 87.8347 107.649 88.656 106.721 89.232C105.804 89.808 104.753 90.096 103.569 90.096C102.524 90.096 101.569 89.856 100.705 89.376C99.8409 88.8853 99.1529 88.208 98.6409 87.344C98.1395 86.48 97.8889 85.504 97.8889 84.416ZM110.264 85.552C110.264 84.6667 110.445 83.8827 110.808 83.2C111.181 82.5173 111.683 81.9893 112.312 81.616C112.952 81.232 113.656 81.04 114.424 81.04C115.117 81.04 115.72 81.1787 116.232 81.456C116.755 81.7227 117.171 82.0587 117.48 82.464V81.184H119.32V90H117.48V88.688C117.171 89.104 116.749 89.4507 116.216 89.728C115.683 90.0053 115.075 90.144 114.392 90.144C113.635 90.144 112.941 89.952 112.312 89.568C111.683 89.1733 111.181 88.6293 110.808 87.936C110.445 87.232 110.264 86.4373 110.264 85.552ZM117.48 85.584C117.48 84.976 117.352 84.448 117.096 84C116.851 83.552 116.525 83.2107 116.12 82.976C115.715 82.7413 115.277 82.624 114.808 82.624C114.339 82.624 113.901 82.7413 113.496 82.976C113.091 83.2 112.76 83.536 112.504 83.984C112.259 84.4213 112.136 84.944 112.136 85.552C112.136 86.16 112.259 86.6933 112.504 87.152C112.76 87.6107 113.091 87.9627 113.496 88.208C113.912 88.4427 114.349 88.56 114.808 88.56C115.277 88.56 115.715 88.4427 116.12 88.208C116.525 87.9733 116.851 87.632 117.096 87.184C117.352 86.7253 117.48 86.192 117.48 85.584ZM123.54 82.464C123.806 82.016 124.158 81.6693 124.596 81.424C125.044 81.168 125.572 81.04 126.18 81.04V82.928H125.716C125.001 82.928 124.457 83.1093 124.084 83.472C123.721 83.8347 123.54 84.464 123.54 85.36V90H121.716V81.184H123.54V82.464ZM128.784 80.016C128.454 80.016 128.176 79.904 127.952 79.68C127.728 79.456 127.616 79.1787 127.616 78.848C127.616 78.5173 127.728 78.24 127.952 78.016C128.176 77.792 128.454 77.68 128.784 77.68C129.104 77.68 129.376 77.792 129.6 78.016C129.824 78.24 129.936 78.5173 129.936 78.848C129.936 79.1787 129.824 79.456 129.6 79.68C129.376 79.904 129.104 80.016 128.784 80.016ZM129.68 81.184V90H127.856V81.184H129.68ZM144.007 82.192C144.007 82.7573 143.874 83.2907 143.607 83.792C143.341 84.2933 142.914 84.704 142.327 85.024C141.741 85.3333 140.989 85.488 140.071 85.488H138.055V90H136.231V78.88H140.071C140.925 78.88 141.645 79.0293 142.231 79.328C142.829 79.616 143.271 80.0107 143.559 80.512C143.858 81.0133 144.007 81.5733 144.007 82.192ZM140.071 84C140.765 84 141.282 83.8453 141.623 83.536C141.965 83.216 142.135 82.768 142.135 82.192C142.135 80.976 141.447 80.368 140.071 80.368H138.055V84H140.071ZM153.827 85.376C153.827 85.7067 153.806 86.0053 153.763 86.272H147.027C147.08 86.976 147.342 87.5413 147.811 87.968C148.28 88.3947 148.856 88.608 149.539 88.608C150.52 88.608 151.214 88.1973 151.619 87.376H153.587C153.32 88.1867 152.835 88.8533 152.131 89.376C151.438 89.888 150.574 90.144 149.539 90.144C148.696 90.144 147.939 89.9573 147.267 89.584C146.606 89.2 146.083 88.6667 145.699 87.984C145.326 87.2907 145.139 86.4907 145.139 85.584C145.139 84.6773 145.32 83.8827 145.683 83.2C146.056 82.5067 146.574 81.9733 147.235 81.6C147.907 81.2267 148.675 81.04 149.539 81.04C150.371 81.04 151.112 81.2213 151.763 81.584C152.414 81.9467 152.92 82.4587 153.283 83.12C153.646 83.7707 153.827 84.5227 153.827 85.376ZM151.923 84.8C151.912 84.128 151.672 83.5893 151.203 83.184C150.734 82.7787 150.152 82.576 149.459 82.576C148.83 82.576 148.291 82.7787 147.843 83.184C147.395 83.5787 147.128 84.1173 147.043 84.8H151.923ZM160.07 81.04C160.763 81.04 161.382 81.184 161.926 81.472C162.481 81.76 162.913 82.1867 163.222 82.752C163.531 83.3173 163.686 84 163.686 84.8V90H161.878V85.072C161.878 84.2827 161.681 83.68 161.286 83.264C160.891 82.8373 160.353 82.624 159.67 82.624C158.987 82.624 158.443 82.8373 158.038 83.264C157.643 83.68 157.446 84.2827 157.446 85.072V90H155.622V81.184H157.446V82.192C157.745 81.8293 158.123 81.5467 158.582 81.344C159.051 81.1413 159.547 81.04 160.07 81.04ZM174.093 85.376C174.093 85.7067 174.071 86.0053 174.029 86.272H167.293C167.346 86.976 167.607 87.5413 168.077 87.968C168.546 88.3947 169.122 88.608 169.805 88.608C170.786 88.608 171.479 88.1973 171.885 87.376H173.852C173.586 88.1867 173.101 88.8533 172.397 89.376C171.703 89.888 170.839 90.144 169.805 90.144C168.962 90.144 168.205 89.9573 167.533 89.584C166.871 89.2 166.349 88.6667 165.965 87.984C165.591 87.2907 165.405 86.4907 165.405 85.584C165.405 84.6773 165.586 83.8827 165.949 83.2C166.322 82.5067 166.839 81.9733 167.501 81.6C168.173 81.2267 168.941 81.04 169.805 81.04C170.637 81.04 171.378 81.2213 172.029 81.584C172.679 81.9467 173.186 82.4587 173.549 83.12C173.911 83.7707 174.093 84.5227 174.093 85.376ZM172.189 84.8C172.178 84.128 171.938 83.5893 171.469 83.184C170.999 82.7787 170.418 82.576 169.725 82.576C169.095 82.576 168.557 82.7787 168.109 83.184C167.661 83.5787 167.394 84.1173 167.309 84.8H172.189ZM177.712 82.464C177.978 82.016 178.33 81.6693 178.768 81.424C179.216 81.168 179.744 81.04 180.352 81.04V82.928H179.888C179.173 82.928 178.629 83.1093 178.256 83.472C177.893 83.8347 177.712 84.464 177.712 85.36V90H175.888V81.184H177.712V82.464ZM183.852 82.496C184.161 82.0693 184.583 81.7227 185.116 81.456C185.66 81.1787 186.263 81.04 186.924 81.04C187.703 81.04 188.407 81.2267 189.036 81.6C189.665 81.9733 190.161 82.5067 190.524 83.2C190.887 83.8827 191.068 84.6667 191.068 85.552C191.068 86.4373 190.887 87.232 190.524 87.936C190.161 88.6293 189.66 89.1733 189.02 89.568C188.391 89.952 187.692 90.144 186.924 90.144C186.241 90.144 185.633 90.0107 185.1 89.744C184.577 89.4773 184.161 89.136 183.852 88.72V90H182.028V78.16H183.852V82.496ZM189.212 85.552C189.212 84.944 189.084 84.4213 188.828 83.984C188.583 83.536 188.252 83.2 187.836 82.976C187.431 82.7413 186.993 82.624 186.524 82.624C186.065 82.624 185.628 82.7413 185.212 82.976C184.807 83.2107 184.476 83.552 184.22 84C183.975 84.448 183.852 84.976 183.852 85.584C183.852 86.192 183.975 86.7253 184.22 87.184C184.476 87.632 184.807 87.9733 185.212 88.208C185.628 88.4427 186.065 88.56 186.524 88.56C186.993 88.56 187.431 88.4427 187.836 88.208C188.252 87.9627 188.583 87.6107 188.828 87.152C189.084 86.6933 189.212 86.16 189.212 85.552ZM192.264 85.552C192.264 84.6667 192.445 83.8827 192.808 83.2C193.181 82.5173 193.683 81.9893 194.312 81.616C194.952 81.232 195.656 81.04 196.424 81.04C197.117 81.04 197.72 81.1787 198.232 81.456C198.755 81.7227 199.171 82.0587 199.48 82.464V81.184H201.32V90H199.48V88.688C199.171 89.104 198.749 89.4507 198.216 89.728C197.683 90.0053 197.075 90.144 196.392 90.144C195.635 90.144 194.941 89.952 194.312 89.568C193.683 89.1733 193.181 88.6293 192.808 87.936C192.445 87.232 192.264 86.4373 192.264 85.552ZM199.48 85.584C199.48 84.976 199.352 84.448 199.096 84C198.851 83.552 198.525 83.2107 198.12 82.976C197.715 82.7413 197.277 82.624 196.808 82.624C196.339 82.624 195.901 82.7413 195.496 82.976C195.091 83.2 194.76 83.536 194.504 83.984C194.259 84.4213 194.136 84.944 194.136 85.552C194.136 86.16 194.259 86.6933 194.504 87.152C194.76 87.6107 195.091 87.9627 195.496 88.208C195.912 88.4427 196.349 88.56 196.808 88.56C197.277 88.56 197.715 88.4427 198.12 88.208C198.525 87.9733 198.851 87.632 199.096 87.184C199.352 86.7253 199.48 86.192 199.48 85.584ZM208.164 81.04C208.857 81.04 209.476 81.184 210.02 81.472C210.574 81.76 211.006 82.1867 211.316 82.752C211.625 83.3173 211.78 84 211.78 84.8V90H209.972V85.072C209.972 84.2827 209.774 83.68 209.38 83.264C208.985 82.8373 208.446 82.624 207.764 82.624C207.081 82.624 206.537 82.8373 206.132 83.264C205.737 83.68 205.54 84.2827 205.54 85.072V90H203.716V81.184H205.54V82.192C205.838 81.8293 206.217 81.5467 206.676 81.344C207.145 81.1413 207.641 81.04 208.164 81.04ZM217.658 81.04C218.341 81.04 218.944 81.1787 219.466 81.456C220 81.7227 220.416 82.0587 220.714 82.464V81.184H222.554V90.144C222.554 90.9547 222.384 91.6747 222.042 92.304C221.701 92.944 221.205 93.4453 220.554 93.808C219.914 94.1707 219.146 94.352 218.25 94.352C217.056 94.352 216.064 94.0693 215.274 93.504C214.485 92.9493 214.037 92.192 213.93 91.232H215.738C215.877 91.6907 216.17 92.0587 216.618 92.336C217.077 92.624 217.621 92.768 218.25 92.768C218.986 92.768 219.578 92.544 220.026 92.096C220.485 91.648 220.714 90.9973 220.714 90.144V88.672C220.405 89.088 219.984 89.44 219.45 89.728C218.928 90.0053 218.33 90.144 217.658 90.144C216.89 90.144 216.186 89.952 215.546 89.568C214.917 89.1733 214.416 88.6293 214.042 87.936C213.68 87.232 213.498 86.4373 213.498 85.552C213.498 84.6667 213.68 83.8827 214.042 83.2C214.416 82.5173 214.917 81.9893 215.546 81.616C216.186 81.232 216.89 81.04 217.658 81.04ZM220.714 85.584C220.714 84.976 220.586 84.448 220.33 84C220.085 83.552 219.76 83.2107 219.354 82.976C218.949 82.7413 218.512 82.624 218.042 82.624C217.573 82.624 217.136 82.7413 216.73 82.976C216.325 83.2 215.994 83.536 215.738 83.984C215.493 84.4213 215.37 84.944 215.37 85.552C215.37 86.16 215.493 86.6933 215.738 87.152C215.994 87.6107 216.325 87.9627 216.73 88.208C217.146 88.4427 217.584 88.56 218.042 88.56C218.512 88.56 218.949 88.4427 219.354 88.208C219.76 87.9733 220.085 87.632 220.33 87.184C220.586 86.7253 220.714 86.192 220.714 85.584ZM224.342 85.552C224.342 84.6667 224.523 83.8827 224.886 83.2C225.259 82.5173 225.761 81.9893 226.39 81.616C227.03 81.232 227.734 81.04 228.502 81.04C229.195 81.04 229.798 81.1787 230.31 81.456C230.833 81.7227 231.249 82.0587 231.558 82.464V81.184H233.398V90H231.558V88.688C231.249 89.104 230.827 89.4507 230.294 89.728C229.761 90.0053 229.153 90.144 228.47 90.144C227.713 90.144 227.019 89.952 226.39 89.568C225.761 89.1733 225.259 88.6293 224.886 87.936C224.523 87.232 224.342 86.4373 224.342 85.552ZM231.558 85.584C231.558 84.976 231.43 84.448 231.174 84C230.929 83.552 230.603 83.2107 230.198 82.976C229.793 82.7413 229.355 82.624 228.886 82.624C228.417 82.624 227.979 82.7413 227.574 82.976C227.169 83.2 226.838 83.536 226.582 83.984C226.337 84.4213 226.214 84.944 226.214 85.552C226.214 86.16 226.337 86.6933 226.582 87.152C226.838 87.6107 227.169 87.9627 227.574 88.208C227.99 88.4427 228.427 88.56 228.886 88.56C229.355 88.56 229.793 88.4427 230.198 88.208C230.603 87.9733 230.929 87.632 231.174 87.184C231.43 86.7253 231.558 86.192 231.558 85.584ZM240.242 81.04C240.935 81.04 241.554 81.184 242.098 81.472C242.652 81.76 243.084 82.1867 243.394 82.752C243.703 83.3173 243.858 84 243.858 84.8V90H242.05V85.072C242.05 84.2827 241.852 83.68 241.458 83.264C241.063 82.8373 240.524 82.624 239.842 82.624C239.159 82.624 238.615 82.8373 238.21 83.264C237.815 83.68 237.618 84.2827 237.618 85.072V90H235.794V81.184H237.618V82.192C237.916 81.8293 238.295 81.5467 238.754 81.344C239.223 81.1413 239.719 81.04 240.242 81.04ZM252.165 88.528H255.925V90H250.341V78.88H252.165V88.528ZM256.842 85.552C256.842 84.6667 257.023 83.8827 257.386 83.2C257.759 82.5173 258.261 81.9893 258.89 81.616C259.53 81.232 260.234 81.04 261.002 81.04C261.695 81.04 262.298 81.1787 262.81 81.456C263.333 81.7227 263.749 82.0587 264.058 82.464V81.184H265.898V90H264.058V88.688C263.749 89.104 263.327 89.4507 262.794 89.728C262.261 90.0053 261.653 90.144 260.97 90.144C260.213 90.144 259.519 89.952 258.89 89.568C258.261 89.1733 257.759 88.6293 257.386 87.936C257.023 87.232 256.842 86.4373 256.842 85.552ZM264.058 85.584C264.058 84.976 263.93 84.448 263.674 84C263.429 83.552 263.103 83.2107 262.698 82.976C262.293 82.7413 261.855 82.624 261.386 82.624C260.917 82.624 260.479 82.7413 260.074 82.976C259.669 83.2 259.338 83.536 259.082 83.984C258.837 84.4213 258.714 84.944 258.714 85.552C258.714 86.16 258.837 86.6933 259.082 87.152C259.338 87.6107 259.669 87.9627 260.074 88.208C260.49 88.4427 260.927 88.56 261.386 88.56C261.855 88.56 262.293 88.4427 262.698 88.208C263.103 87.9733 263.429 87.632 263.674 87.184C263.93 86.7253 264.058 86.192 264.058 85.584ZM269.222 80.016C268.891 80.016 268.614 79.904 268.39 79.68C268.166 79.456 268.054 79.1787 268.054 78.848C268.054 78.5173 268.166 78.24 268.39 78.016C268.614 77.792 268.891 77.68 269.222 77.68C269.542 77.68 269.814 77.792 270.038 78.016C270.262 78.24 270.374 78.5173 270.374 78.848C270.374 79.1787 270.262 79.456 270.038 79.68C269.814 79.904 269.542 80.016 269.222 80.016ZM270.118 81.184V90H268.294V81.184H270.118ZM276.961 81.04C277.654 81.04 278.273 81.184 278.817 81.472C279.371 81.76 279.803 82.1867 280.113 82.752C280.422 83.3173 280.577 84 280.577 84.8V90H278.769V85.072C278.769 84.2827 278.571 83.68 278.177 83.264C277.782 82.8373 277.243 82.624 276.561 82.624C275.878 82.624 275.334 82.8373 274.929 83.264C274.534 83.68 274.337 84.2827 274.337 85.072V90H272.513V81.184H274.337V82.192C274.635 81.8293 275.014 81.5467 275.473 81.344C275.942 81.1413 276.438 81.04 276.961 81.04Z" fill="white"/>
</svg>
